<svg width="300" height="300" viewBox="0 0 300 300" xmlns="http://www.w3.org/2000/svg">
  <defs>
    <!-- 背景 -->
    <linearGradient id="bgGradient" x1="0%" y1="0%" x2="100%" y2="100%">
      <stop offset="0%" stop-color="#1E293B" />
      <stop offset="100%" stop-color="#0F172A" />
    </linearGradient>
    
    <!-- R字母渐变 -->
    <linearGradient id="letterGradient" x1="0%" y1="0%" x2="100%" y2="100%">
      <stop offset="0%" stop-color="#93C5FD" />
      <stop offset="100%" stop-color="#7DD3FC" />
    </linearGradient>
    
    <!-- 绿色圆点渐变 -->
    <radialGradient id="greenCircle" cx="40%" cy="40%" r="60%" fx="40%" fy="40%">
      <stop offset="0%" stop-color="#BEF264" />
      <stop offset="100%" stop-color="#84CC16" />
    </radialGradient>
    
    <!-- 粉色圆点渐变 -->
    <radialGradient id="pinkCircle" cx="40%" cy="40%" r="60%" fx="40%" fy="40%">
      <stop offset="0%" stop-color="#FDA4AF" />
      <stop offset="100%" stop-color="#F472B6" />
    </radialGradient>
  </defs>
  
  <!-- 圆角背景 -->
  <rect x="30" y="30" width="240" height="240" rx="40" ry="40" fill="url(#bgGradient)" />
  
  <!-- 简化的R字母 -->
  <path d="M100,80 L100,220 L130,220 L130,160 L160,160 L190,220 L220,220 L190,160 
           C205,155 215,140 215,120 C215,95 195,80 170,80 Z" 
        fill="url(#letterGradient)" />
  
  <!-- R字母内负空间 -->
  <path d="M130,110 L170,110 C180,110 185,115 185,125 C185,135 180,140 170,140 L130,140 Z" 
        fill="url(#bgGradient)" />
  
  <!-- 魔法装饰元素 - 绿色圆点(杖头) -->
  <circle cx="200" cy="100" r="18" fill="url(#greenCircle)" />
  
  <!-- 魔法装饰元素 - 粉色圆点(星星) -->
  <circle cx="100" cy="200" r="18" fill="url(#pinkCircle)" />
  
  <!-- 微妙的魔法星光 - 在绿点周围 -->
  <g opacity="0.7">
    <path d="M200,82 L200,78 M218,100 L222,100 M200,118 L200,122 M182,100 L178,100" 
          stroke="#BEF264" stroke-width="2" stroke-linecap="round" />
  </g>
  
  <!-- 微妙的魔法星光 - 在粉点周围 -->
  <g opacity="0.7">
    <path d="M100,182 L100,178 M118,200 L122,200 M100,218 L100,222 M82,200 L78,200" 
          stroke="#FDA4AF" stroke-width="2" stroke-linecap="round" />
  </g>
</svg>